<?xml version="1.0" encoding="UTF-8" standalone="no"?>
<!-- Created with Inkscape (http://www.inkscape.org/) -->

<svg
   version="1.1"
   id="svg1"
   width="1439.24"
   height="1440"
   viewBox="0 0 1439.24 1440"
   sodipodi:docname="أبعاد logo.eps"
   xmlns:inkscape="http://www.inkscape.org/namespaces/inkscape"
   xmlns:sodipodi="http://sodipodi.sourceforge.net/DTD/sodipodi-0.dtd"
   xmlns="http://www.w3.org/2000/svg"
   xmlns:svg="http://www.w3.org/2000/svg">
  <defs
     id="defs1" />
  <sodipodi:namedview
     id="namedview1"
     pagecolor="#ffffff"
     bordercolor="#000000"
     borderopacity="0.25"
     inkscape:showpageshadow="2"
     inkscape:pageopacity="0.0"
     inkscape:pagecheckerboard="0"
     inkscape:deskcolor="#d1d1d1">
    <inkscape:page
       x="0"
       y="0"
       inkscape:label="1"
       id="page1"
       width="1439.24"
       height="1440"
       margin="0"
       bleed="0" />
  </sodipodi:namedview>
  <g
     id="g1"
     inkscape:groupmode="layer"
     inkscape:label="1">
    <g
       id="group-R5">
      <path
         id="path2"
         d="m 6475.37,10188.3 -1078.22,611.7 -1.45,-0.7 L 4318.68,10187.8 3239.96,9575.86 2160.53,8963.19 V 7858.57 l 1079.43,612.67 1078.72,612.66 1077.02,611.71 1.45,0.72 1078.22,-612.43 1078.96,-612.66 V 7366.85 L 6475.37,7980 5397.15,8592.67 5395.7,8591.94 4318.68,7980 3239.96,7366.85 2160.53,6753.46 V 5648.83 l 1079.43,613.63 1078.72,613.15 1077.02,612.43 1.45,0.72 1078.22,-613.15 1078.96,-613.15 1079.43,-613.63 v 3314.36 l -1079.43,612.67 -1078.96,612.44"
         style="fill:#ffffff;fill-opacity:1;fill-rule:nonzero;stroke:none"
         transform="matrix(0.13333333,0,0,-0.13333333,0,1440)" />
      <path
         id="path3"
         d="m 7554.33,2949.3 -1078.96,614.11 -1078.22,613.86 -1.45,-0.72 L 4318.68,3563.41 3239.96,2949.3 v 1104.38 l 1078.72,613.87 1077.02,612.67 1.45,0.72 v 1104.15 l -1.45,-0.72 L 4318.68,5771.7 3239.96,5158.31 2160.53,4544.2 V 2334.95 L 1080.39,1720.36 V 8350.04 L 0,7736.66 V 0.402344 L 1080.39,615.301 2160.05,1230.32 h 0.48 v 0.24 l 1079.43,614.35 1078.72,614.35 1077.02,613.39 1.45,0.72 1078.22,-613.63 v -0.48 h 0.24 L 7554.33,1844.91 8633.76,1230.32 V 4544.2 L 7554.33,5158.31 V 2949.3"
         style="fill:#ffffff;fill-opacity:1;fill-rule:nonzero;stroke:none"
         transform="matrix(0.13333333,0,0,-0.13333333,0,1440)" />
      <path
         id="path4"
         d="M 9713.59,8350.1 V 615.301 h 0.32 L 10794.3,0 V 7736.74 L 9713.59,8350.1"
         style="fill:#ffffff;fill-opacity:1;fill-rule:nonzero;stroke:none"
         transform="matrix(0.13333333,0,0,-0.13333333,0,1440)" />
      <path
         id="path5"
         d="M 5395.7,1844.19 4317.96,1230.32 5395.7,616 l 1.45,-0.699 1078.7,615.019 -1078.7,614.59 -1.45,-0.72"
         style="fill:#ffffff;fill-opacity:1;fill-rule:nonzero;stroke:none"
         transform="matrix(0.13333333,0,0,-0.13333333,0,1440)" />
    </g>
  </g>
</svg>
